<?xml version="1.0" standalone="no"?>
<!DOCTYPE svg PUBLIC "-//W3C//DTD SVG 20010904//EN"
 "http://www.w3.org/TR/2001/REC-SVG-20010904/DTD/svg10.dtd">
<svg version="1.0" xmlns="http://www.w3.org/2000/svg"
 width="500.000000pt" height="500.000000pt" viewBox="0 0 500.000000 500.000000"
 preserveAspectRatio="xMidYMid meet">

<g transform="translate(0.000000,500.000000) scale(0.100000,-0.100000)"
fill="#000000" stroke="none">
<path d="M2550 4990 c-368 -29 -732 -151 -1038 -347 -46 -29 -89 -58 -95 -63
-7 -6 -50 -40 -97 -77 -47 -37 -123 -106 -171 -153 -92 -92 -206 -220 -195
-220 4 0 30 17 59 38 230 169 572 316 877 376 277 55 595 55 885 -1 119 -22
295 -72 370 -104 11 -4 54 -22 95 -39 306 -127 650 -386 863 -650 33 -41 64
-79 69 -85 5 -6 83 65 197 179 l189 189 -61 81 c-139 181 -374 400 -562 521
-409 265 -909 393 -1385 355z"/>
<path d="M2155 4473 c-280 -33 -422 -68 -653 -160 -203 -81 -426 -219 -597
-369 -155 -137 -183 -171 -237 -296 -120 -273 -181 -572 -181 -883 0 -263 33
-465 114 -710 160 -480 462 -874 890 -1160 253 -170 529 -279 861 -342 120
-22 582 -25 698 -5 358 65 623 168 910 356 124 82 126 83 197 190 260 388 388
871 355 1344 -22 315 -102 600 -243 869 -50 95 -98 173 -106 173 -3 0 -509
-504 -1125 -1120 -615 -616 -1121 -1120 -1123 -1120 -4 0 -60 101 -142 260
-33 63 -78 149 -100 190 -22 41 -84 161 -138 265 -54 105 -101 195 -105 200
-4 6 -36 66 -70 133 -68 133 -67 125 -8 157 30 17 48 19 48 7 0 -7 50 -105
210 -407 31 -60 88 -168 126 -240 37 -71 92 -175 121 -230 30 -55 59 -112 64
-127 6 -16 14 -28 17 -28 4 0 493 485 1086 1079 l1079 1079 -59 73 c-230 289
-512 503 -876 663 -72 32 -275 95 -368 115 -190 41 -498 62 -645 44z"/>
<path d="M4433 3756 c-101 -101 -183 -187 -183 -191 0 -5 27 -54 60 -109 269
-456 373 -1003 289 -1526 -30 -185 -105 -434 -175 -580 -12 -25 -20 -47 -18
-49 2 -2 5 -2 7 0 144 182 213 285 290 436 114 222 180 423 224 683 25 148 25
542 0 685 -37 207 -89 385 -163 555 -30 68 -130 260 -142 272 -4 3 -89 -76
-189 -176z"/>
</g>
</svg>
