<?xml version="1.0" standalone="no"?>
<!DOCTYPE svg PUBLIC "-//W3C//DTD SVG 20010904//EN"
 "http://www.w3.org/TR/2001/REC-SVG-20010904/DTD/svg10.dtd">
<svg version="1.0" xmlns="http://www.w3.org/2000/svg"
 width="666.000000pt" height="375.000000pt" viewBox="0 0 666.000000 375.000000"
 preserveAspectRatio="xMidYMid meet">

<g transform="translate(0.000000,375.000000) scale(0.100000,-0.100000)"
fill="#000000" stroke="none">
<path d="M1415 3011 c-155 -34 -262 -78 -385 -160 -62 -41 -171 -140 -202
-184 l-21 -29 39 26 c94 63 209 114 334 149 64 18 103 21 260 21 180 -1 188
-1 288 -33 196 -60 359 -163 489 -307 37 -41 71 -73 75 -72 4 2 44 39 88 82
l79 79 -17 29 c-30 51 -171 186 -245 237 -234 157 -526 217 -782 162z"/>
<path d="M1375 2794 c-228 -29 -362 -77 -515 -183 -69 -48 -180 -148 -180
-163 0 -4 -8 -27 -18 -51 -214 -491 7 -1084 495 -1326 151 -75 278 -104 458
-103 144 0 224 14 356 60 53 19 173 77 194 95 6 4 29 21 52 38 72 51 158 217
203 392 31 117 31 336 0 457 -32 124 -79 234 -137 319 -1 2 -234 -229 -517
-513 -283 -284 -518 -516 -523 -516 -5 0 -36 51 -68 113 -32 61 -75 144 -95
182 -115 217 -123 235 -110 250 7 8 16 15 21 15 4 0 24 -33 45 -72 20 -40 59
-116 87 -168 28 -52 65 -124 84 -159 18 -36 37 -69 42 -74 5 -5 218 201 505
488 451 452 495 499 485 518 -20 36 -172 181 -234 222 -130 86 -240 133 -378
159 -82 16 -208 26 -252 20z"/>
<path d="M2403 2455 l-83 -84 19 -33 c84 -142 133 -290 151 -458 10 -98 10
-132 -4 -230 -16 -112 -37 -194 -71 -275 -15 -34 -15 -37 -1 -26 43 36 142
212 174 311 41 129 44 147 49 299 6 169 -7 265 -54 391 -28 75 -84 190 -92
190 -3 0 -43 -38 -88 -85z"/>
</g>
</svg>
